P2
67 62
255
93 93 93 95 99 104 107 112 115 118 119 119 116 115 114 108 108 
108 111 115 119 122 124 130 133 138 142 147 152 156 159 159 161 
159 156 154 152 151 149 147 146 142 141 141 141 139 138 136 133 
128 124 119 119 122 127 130 133 134 133 133 134 136 138 139 142 
144 141 95 95 95 96 99 103 105 111 114 116 119 121 119 116 115 111 111 
109 111 115 119 124 127 131 134 139 144 147 152 157 161 163 163 
163 161 157 157 156 152 152 149 147 146 144 144 141 139 138 133 
128 125 121 121 125 130 133 134 134 133 133 134 136 138 139 141 
141 138 97 96 96 96 99 101 104 108 111 115 119 121 121 119 118 115 114 
112 112 116 121 125 130 133 136 141 144 149 152 157 161 164 168 
168 166 163 163 161 159 157 156 152 151 151 147 144 142 139 136 
131 127 124 124 127 131 136 136 136 134 134 136 138 138 138 139 
138 136 101 100 99 97 99 101 103 107 108 112 116 121 122 122 122 119 116 
115 114 116 121 127 130 134 138 141 146 149 154 159 163 166 171 
173 171 168 166 164 164 161 159 157 156 156 152 149 146 142 138 
133 130 127 127 128 133 138 139 139 138 138 139 138 136 136 136 
134 133 104 103 101 100 100 101 103 107 107 109 115 119 124 125 125 122 119 
116 115 116 119 125 130 133 136 141 144 149 154 161 164 168 173 
177 175 173 171 170 168 164 163 161 161 159 156 152 149 146 141 
136 131 130 128 130 133 139 141 142 142 141 141 139 136 134 134 
133 131 108 105 103 101 101 104 105 108 109 111 114 119 124 127 128 125 124 
119 118 116 119 124 128 133 136 139 144 147 154 159 164 168 173 
177 179 179 177 175 171 170 168 166 164 163 159 156 152 149 144 
139 134 131 130 131 134 139 142 146 146 144 144 141 138 134 134 
134 131 111 108 105 104 104 105 108 111 111 114 116 119 124 127 130 130 127 
124 121 119 121 124 127 133 134 138 142 146 152 157 163 168 173 
179 183 184 184 181 177 175 173 170 168 166 163 157 154 151 146 
141 138 134 133 134 138 141 144 147 147 146 144 142 139 138 138 
136 133 112 109 107 104 105 107 109 112 114 115 118 121 124 128 130 131 130 
127 124 122 122 125 127 133 134 138 141 146 151 156 161 166 171 
179 184 188 188 186 183 181 177 173 171 168 164 159 157 152 147 
142 139 136 136 136 139 141 146 149 147 146 144 144 142 139 139 
138 134 114 111 108 108 109 111 112 115 116 118 121 124 127 130 131 136 133 
131 128 127 124 125 130 134 138 142 146 147 151 156 161 166 171 
177 183 186 190 192 190 188 184 177 173 168 164 159 157 151 149 
146 144 142 141 141 142 147 149 149 151 149 147 144 141 139 139 
138 134 116 112 109 109 111 114 115 118 119 119 121 124 127 131 133 139 136 
134 133 130 127 127 130 136 139 144 147 149 152 157 163 166 171 
177 183 186 192 192 190 186 183 177 171 168 164 161 157 154 151 
149 147 146 144 144 146 151 151 151 151 149 147 142 141 139 138 
136 133 118 114 111 111 114 116 118 122 122 122 124 125 128 133 136 142 141 
141 138 134 131 130 131 138 141 146 149 152 156 161 164 168 173 
179 183 188 192 192 190 186 183 177 171 170 166 163 161 159 156 
152 151 149 149 151 152 154 154 152 151 149 146 141 139 136 134 
133 130 119 115 112 112 115 119 122 125 125 125 125 125 128 133 138 144 144 
144 142 138 134 133 133 138 141 146 149 154 157 163 166 170 173 
179 183 188 192 192 192 188 184 179 175 171 170 168 166 163 159 
156 154 154 154 154 156 159 157 154 151 147 142 139 136 134 133 
130 128 121 118 114 114 116 121 124 127 128 128 128 127 130 134 139 144 146 
147 146 142 138 136 134 138 139 144 149 152 157 163 166 170 173 
179 183 188 192 194 192 188 184 181 177 175 173 171 170 164 161 
157 157 157 157 157 159 161 157 154 149 146 141 138 134 133 131 
130 128 124 119 116 116 118 122 125 130 131 133 133 131 133 136 141 146 149 
151 149 146 142 139 138 138 139 142 147 151 156 161 164 168 173 
179 183 188 192 194 194 190 186 183 181 179 177 173 171 168 164 
161 161 161 161 161 161 161 157 154 149 144 141 138 136 134 133 
131 131 127 122 119 119 121 125 128 131 134 138 138 136 136 141 144 151 154 
157 154 151 149 146 142 139 141 142 146 149 154 159 161 168 171 
177 183 186 192 194 194 192 190 188 186 184 181 179 175 171 168 
166 166 166 164 164 164 159 157 152 147 144 142 139 139 138 138 
136 134 128 125 122 121 122 127 130 133 138 141 142 139 139 142 147 154 159 
161 159 156 152 149 146 142 142 144 146 149 152 157 159 168 171 
177 181 186 192 196 196 198 194 192 190 190 186 183 179 173 171 
168 170 170 168 166 166 159 156 152 147 146 144 142 141 141 139 
138 138 131 128 127 125 125 128 131 136 142 149 151 146 144 149 152 159 161 
163 163 159 157 154 151 147 146 144 147 151 154 159 163 168 171 
177 183 186 192 196 200 198 198 198 196 194 188 184 181 177 175 
173 173 173 171 168 164 159 156 151 147 147 149 149 147 146 144 
142 139 136 133 131 130 128 131 134 139 146 152 154 151 149 151 156 161 164 
166 166 163 159 156 154 152 149 147 149 152 156 161 164 170 173 
177 183 188 192 198 202 200 200 200 198 194 190 186 184 181 179 
179 177 175 171 168 164 159 156 152 151 151 151 151 149 146 146 
144 141 141 138 136 134 133 134 138 142 149 156 157 156 154 154 157 164 168 
171 170 166 163 161 159 157 154 152 152 156 159 163 168 171 175 
179 184 188 194 200 204 206 204 204 202 198 194 190 186 184 184 
183 181 177 171 166 163 159 157 157 156 156 156 154 151 149 147 
146 144 144 142 139 138 136 138 141 146 151 157 161 159 157 157 159 166 170 
173 173 170 166 164 163 163 159 156 156 157 161 166 171 175 177 
183 186 190 196 202 206 210 208 208 204 200 196 192 190 188 188 
186 183 177 171 166 164 163 161 161 161 161 159 157 156 152 151 
149 146 147 146 144 141 139 139 142 146 151 157 161 161 161 159 161 166 171 
175 175 173 170 170 168 166 161 157 157 159 164 168 173 177 181 
184 186 190 196 204 208 212 212 210 208 204 200 196 194 192 190 
186 181 175 171 168 166 166 166 164 164 164 163 161 159 156 156 
152 149 151 149 147 146 142 144 146 147 152 159 163 164 164 164 164 168 173 
177 179 177 175 173 173 170 166 161 161 163 166 171 175 181 183 
184 188 192 198 204 210 214 214 214 212 208 204 200 198 196 192 
186 181 177 173 171 171 171 171 170 170 168 166 166 164 161 159 
154 151 156 154 152 151 147 149 151 152 156 161 166 170 170 170 170 171 175 
181 181 181 181 181 177 175 171 166 166 168 170 173 177 183 184 
186 188 192 198 204 210 216 216 216 216 212 208 204 202 198 194 
188 183 181 179 179 177 175 175 175 175 173 171 170 168 164 161 
157 151 159 157 157 154 152 152 154 154 157 163 168 173 175 173 173 173 177 
183 184 184 186 184 183 179 175 170 170 170 171 175 179 183 184 
186 188 192 198 204 210 218 218 218 218 216 212 208 204 198 194 
188 184 184 183 183 181 179 179 179 179 177 173 171 170 166 163 
157 152 161 161 161 159 157 156 156 157 161 166 170 173 175 177 179 177 181 
184 188 192 190 188 184 181 177 175 175 177 177 177 179 183 184 
186 190 196 200 206 208 216 222 224 222 218 214 210 206 200 198 
194 190 188 186 184 184 183 181 181 181 181 179 175 171 166 163 
157 154 163 164 163 163 161 159 159 161 163 168 171 175 177 181 183 181 183 
186 190 194 194 190 188 184 181 179 179 179 179 179 181 184 186 
188 190 196 202 206 210 218 222 226 224 220 216 212 208 204 202 
198 194 190 188 186 186 186 184 183 183 183 179 177 173 168 164 
159 156 166 168 168 166 164 164 164 164 166 170 173 179 183 184 186 184 184 
188 192 196 198 196 192 188 184 183 183 183 181 181 183 186 188 
190 194 196 202 208 212 218 224 229 226 222 218 214 210 208 206 
202 198 194 192 190 188 190 188 186 184 184 181 177 175 170 166 
161 159 168 170 171 170 170 168 166 166 170 173 177 183 186 188 190 188 188 
190 194 200 202 200 198 194 190 186 186 186 184 184 184 188 190 
194 196 198 204 210 214 220 224 229 229 224 222 218 214 210 208 
204 202 198 196 194 192 192 192 188 186 184 183 179 175 171 168 
164 163 171 173 175 175 173 171 170 170 171 175 181 186 190 192 194 192 192 
192 196 200 204 204 202 198 194 192 192 190 188 188 188 192 194 
196 198 202 206 212 216 220 226 231 231 229 224 220 216 212 210 
206 204 202 200 198 196 194 194 190 188 186 183 179 177 175 171 
168 166 173 177 181 179 177 175 175 175 175 179 183 188 192 196 196 196 196 
194 198 202 204 206 206 200 198 196 196 196 194 194 194 196 198 
200 204 206 210 214 218 222 229 233 235 233 229 224 220 214 214 
210 208 208 206 204 202 198 196 194 190 188 184 181 181 179 177 
173 170 177 181 184 186 184 183 183 179 179 181 184 188 194 198 200 200 198 
198 200 202 206 208 208 204 202 200 200 202 200 200 200 200 202 
204 208 212 216 218 220 224 231 237 237 235 233 229 224 220 218 
216 214 212 210 208 206 202 200 198 194 190 188 184 184 183 181 
177 173 179 184 188 190 190 188 186 184 183 183 184 190 196 200 204 202 202 
200 200 204 206 210 212 206 204 202 204 204 204 204 204 204 204 
208 212 216 218 220 222 226 233 239 242 239 235 231 226 224 222 
220 218 216 214 210 208 204 202 200 198 194 190 188 188 184 183 
179 173 181 184 190 192 192 190 190 190 190 188 188 190 196 202 206 206 206 
204 202 204 210 214 214 210 208 206 206 208 210 210 210 210 210 
212 216 220 224 226 226 231 235 242 244 244 242 235 233 229 226 
224 222 222 218 214 210 210 208 204 200 198 194 192 190 186 184 
181 175 183 188 192 196 196 196 194 194 192 192 192 192 196 202 206 208 210 
208 206 208 212 214 216 212 212 210 210 210 212 212 212 216 216 
218 220 226 229 233 233 235 237 244 246 246 244 239 237 235 233 
229 226 226 222 220 216 214 212 208 204 202 198 196 194 188 186 
183 177 184 188 194 198 200 200 200 200 198 196 196 196 198 204 206 210 212 
212 212 210 214 216 218 216 216 214 214 214 216 216 218 220 222 
222 226 231 235 237 239 239 242 246 248 250 248 246 242 242 237 
235 231 229 226 224 222 218 216 212 208 206 202 198 196 192 190 
184 179 184 188 194 198 200 204 204 204 204 202 200 200 202 204 208 212 214 
216 214 214 216 220 220 220 220 218 218 218 220 220 222 226 226 
226 231 233 237 242 244 246 246 248 250 250 250 248 246 244 239 
235 233 231 229 226 224 220 218 216 214 210 206 202 200 196 192 
188 183 184 188 192 196 200 204 206 208 206 206 204 204 204 208 210 212 216 
218 218 218 220 222 224 224 222 222 222 222 222 224 226 231 231 
233 235 237 242 244 246 248 248 248 248 248 248 246 244 242 239 
235 231 229 229 226 226 224 222 220 218 214 210 206 204 198 196 
190 186 184 188 192 196 200 204 208 208 208 210 208 208 210 212 212 214 216 
218 218 220 224 226 226 226 226 224 224 224 224 226 229 233 235 
237 239 242 244 246 246 246 246 244 244 244 244 242 239 237 235 
233 229 226 226 226 226 226 224 222 218 216 212 210 208 200 198 
194 190 183 186 190 192 196 202 206 208 210 212 214 214 214 216 216 218 220 
220 220 222 226 229 229 229 229 229 226 226 226 229 231 233 235 
239 242 242 242 244 244 242 239 239 239 239 239 237 233 231 229 
226 224 222 222 222 222 222 220 218 216 212 210 208 206 202 200 
198 194 181 184 186 188 192 198 202 208 210 214 216 218 218 220 220 220 222 
222 222 224 226 231 229 229 231 231 229 229 229 231 233 231 235 
237 239 239 239 239 239 237 235 235 235 237 235 233 231 224 222 
222 220 218 216 216 216 218 216 212 210 208 206 204 204 204 202 
200 198 177 181 183 186 192 198 202 204 208 214 218 220 220 222 224 224 226 
226 226 226 226 229 231 231 229 229 229 229 231 233 233 235 235 
235 237 237 237 235 233 233 231 231 231 231 229 224 222 218 218 
216 216 214 210 208 208 210 208 206 204 200 200 198 200 202 202 
202 200 175 179 183 188 192 198 202 206 210 216 220 222 222 224 226 224 226 
229 229 229 229 229 231 231 229 229 229 229 231 233 233 233 231 
231 233 233 233 231 229 229 226 226 226 226 224 220 216 214 212 
212 212 210 206 204 204 204 204 202 200 196 194 194 194 196 196 
198 200 173 179 183 188 194 200 202 208 210 216 220 220 222 224 226 226 229 
229 231 231 231 229 231 229 226 226 226 226 229 229 229 229 226 
226 226 226 224 224 222 224 222 220 220 220 218 214 210 208 206 
204 204 202 198 196 198 198 196 196 192 190 188 188 188 188 190 
192 194 175 179 184 190 196 200 202 206 210 214 216 218 218 220 222 226 229 
231 231 233 231 229 229 224 222 220 220 222 224 224 224 224 224 
222 220 220 220 218 218 218 218 216 214 214 212 208 206 202 200 
198 198 196 192 190 190 190 190 190 188 184 183 183 183 184 184 
186 188 177 183 188 192 196 200 202 206 210 212 214 214 216 218 220 224 226 
229 231 233 231 229 226 222 220 218 218 220 222 222 220 220 220 
218 218 216 214 214 214 214 214 212 212 212 210 206 202 198 196 
192 192 192 188 186 186 186 186 186 184 183 181 179 179 179 181 
183 184 179 183 188 192 194 198 200 206 208 210 212 212 214 216 218 222 224 
229 231 231 229 224 222 220 218 214 216 218 218 218 218 216 216 
216 214 212 212 210 210 210 210 208 208 208 206 204 200 196 192 
190 188 186 184 183 181 181 183 183 181 179 175 175 175 175 177 
179 183 179 183 184 188 192 194 198 202 204 206 208 208 210 214 218 220 222 
226 229 231 226 222 218 216 214 210 210 214 214 214 212 210 210 
212 210 208 208 206 206 206 204 204 204 204 204 200 198 194 190 
186 184 183 181 177 177 175 177 177 175 173 171 170 170 170 171 
175 179 177 179 183 186 190 192 194 198 200 202 204 204 208 212 216 218 220 
224 229 229 226 220 216 212 208 206 206 208 210 210 208 206 208 
208 208 206 204 204 202 202 202 202 202 202 202 198 196 194 188 
184 183 181 177 175 173 171 173 173 171 170 168 166 166 168 170 
171 177 171 175 179 184 188 190 192 194 196 200 202 204 208 212 214 218 222 
224 226 226 224 218 214 210 208 206 204 202 202 202 202 200 200 
202 204 204 202 200 198 198 196 196 196 198 198 198 196 192 188 
184 179 175 173 171 171 166 166 166 166 164 163 161 159 161 163 
164 170 170 173 179 183 186 188 188 192 194 198 202 204 208 210 212 216 220 
222 224 224 222 218 212 208 206 202 200 198 198 198 198 196 198 
198 200 200 198 196 196 194 192 192 194 196 196 196 194 192 188 
183 179 175 171 170 168 164 164 163 163 161 161 159 157 159 159 
163 166 170 173 179 183 184 186 188 190 192 196 200 204 206 208 210 214 218 
220 222 222 220 216 210 206 202 198 194 194 194 194 194 192 192 
194 196 196 194 192 192 190 188 188 190 192 194 194 192 190 188 
183 179 175 171 168 166 163 161 157 157 157 157 156 154 156 157 
159 163 173 177 183 184 188 188 190 190 192 196 200 202 206 208 210 212 216 
218 220 220 218 214 210 204 200 196 192 190 188 188 188 188 188 
190 190 192 190 190 190 186 186 184 186 188 190 190 190 190 188 
183 179 175 171 166 164 161 157 154 154 154 154 152 151 152 154 
157 159 177 181 184 188 188 190 190 192 192 196 198 200 204 208 210 212 216 
216 216 216 216 214 208 204 200 196 190 188 186 186 184 184 184 
186 188 188 188 188 188 186 184 183 184 186 188 188 188 188 186 
183 181 177 171 168 164 159 157 154 151 151 151 151 149 151 152 
154 156 181 184 186 188 188 190 192 194 196 198 200 202 204 208 210 212 214 
214 212 212 212 210 206 204 200 194 190 186 184 183 181 181 181 
183 184 184 184 184 184 184 183 181 181 183 183 183 183 183 183 
181 181 177 173 170 166 161 157 154 151 149 149 147 146 147 149 
151 152 183 186 188 188 188 190 192 196 198 200 202 204 206 208 210 210 210 
210 206 206 206 206 202 202 198 194 188 184 183 179 177 175 177 
177 179 181 181 181 181 183 179 177 177 177 179 177 177 179 179 
179 179 177 175 170 168 161 159 156 151 149 146 144 142 146 146 
147 147 186 190 190 190 190 192 194 198 200 202 204 206 206 208 210 208 208 
206 202 202 202 202 200 200 196 192 188 184 179 175 173 173 173 
175 175 177 179 179 179 181 177 175 173 173 173 173 173 175 175 
177 177 177 175 171 168 161 159 156 152 147 144 142 141 142 144 
144 144 186 190 192 192 192 194 196 198 200 202 204 206 206 206 206 206 204 
200 198 198 198 196 194 194 192 190 188 184 181 173 170 170 170 
170 171 173 175 177 175 175 173 171 170 168 166 166 166 170 170 
171 173 175 175 173 171 166 161 156 154 149 144 139 139 139 144 
146 142 186 188 192 192 194 194 196 198 200 202 204 204 206 204 204 204 200 
198 196 194 194 192 190 190 190 186 184 183 179 173 170 168 168 
168 170 171 173 173 175 173 171 170 166 164 164 164 164 166 168 
170 171 173 173 173 171 166 161 157 154 149 144 139 138 136 139 
141 139 184 186 190 192 194 194 196 196 196 198 200 200 200 200 200 200 198 
194 190 188 186 186 186 186 184 183 181 179 175 171 168 166 164 
164 166 168 170 171 171 170 168 166 163 161 161 161 161 163 164 
166 168 170 171 173 173 168 163 157 154 149 144 139 136 133 134 
134 133 183 186 190 192 194 194 194 190 192 192 194 194 194 194 194 194 194 
190 188 184 181 181 181 181 179 177 177 175 173 170 166 163 163 
163 163 166 168 170 170 168 166 163 159 157 157 157 157 157 161 
163 166 168 170 171 173 168 164 159 154 151 144 139 136 131 131 
131 130 183 186 190 192 194 194 192 188 188 188 190 190 188 188 188 190 190 
188 184 181 177 177 177 175 175 173 171 171 170 166 164 161 161 
161 161 164 166 166 166 166 164 161 157 156 154 154 154 156 157 
161 163 164 166 170 170 166 164 159 154 151 146 141 136 133 131 
128 127 184 186 190 192 192 190 190 186 186 186 186 186 186 186 184 184 184 
184 183 177 175 173 171 171 170 168 168 168 166 164 161 157 157 
159 161 163 164 164 164 163 161 159 156 154 152 151 151 152 154 
156 157 161 163 166 168 164 163 159 154 151 147 142 139 134 131 
127 125 