P2
16 16
255

     
150 150 150 150 150 150 150 150 150 150 150 150 150 150 150 150
170 170 170 160 140 120 070 080 160 130 140 150 050 050 050 050
100 110 130 120 130 110 090 120 130 090 130 050 050 050 050 050
080 080 090 110 100 100 120 170 190 180 100 050 050 050 050 050
080 060 050 050 070 070 200 190 180 200 190 050 050 050 050 050
120 140 160 180 200 210 240 100 120 100 070 050 050 050 050 050
080 150 170 200 200 080 050 080 150 150 130 050 050 050 050 050
050 050 130 120 060 070 160 200 210 200 200 190 170 050 050 050
050 050 110 100 080 180 200 230 255 250 210 180 160 050 050 050
050 070 050 070 050 070 210 220 230 220 200 160 150 050 050 050
050 070 100 150 160 080 150 170 180 180 150 130 100 050 050 050
050 080 120 120 170 080 100 110 120 170 140 120 090 050 050 050
050 090 050 150 150 150 100 090 110 100 090 080 050 050 050 050
050 090 050 050 050 150 080 160 180 200 150 150 100 100 050 050
100 100 050 050 100 100 150 180 190 200 150 150 150 050 050 050
150 150 150 150 150 150 150 150 150 150 150 150 150 150 150 150